<?xml version="1.0" standalone="no"?>
<!DOCTYPE svg PUBLIC "-//W3C//DTD SVG 20010904//EN"
 "http://www.w3.org/TR/2001/REC-SVG-20010904/DTD/svg10.dtd">
<svg version="1.0" xmlns="http://www.w3.org/2000/svg"
 width="794.000000pt" height="581.000000pt" viewBox="0 0 794.000000 581.000000"
 preserveAspectRatio="xMidYMid meet">
<metadata>
Created by potrace 1.13, written by Peter Selinger 2001-2015
</metadata>
<g transform="translate(0.000000,581.000000) scale(0.100000,-0.100000)"
fill="#000000" stroke="none">
<path d="M4526 5277 c-356 -443 -613 -979 -715 -1492 -37 -187 -53 -340 -58
-566 l-6 -226 -80 49 c-577 358 -1247 687 -1877 921 -216 80 -407 143 -414
136 -3 -3 -19 -113 -36 -245 -16 -131 -32 -251 -34 -266 l-5 -28 167 0 c276 0
549 -33 833 -101 l126 -30 110 -87 c148 -117 252 -205 252 -214 1 -5 -318 -8
-708 -8 l-708 0 -144 -207 -145 -208 -66 -3 -66 -3 -421 -635 c-232 -349 -421
-637 -421 -639 0 -3 787 -5 1748 -5 1596 0 1758 -1 1853 -17 147 -24 512 -24
669 -1 99 15 348 21 1785 43 1601 25 1671 27 1689 45 29 29 8 65 -97 168 -51
50 -110 116 -132 148 -70 99 -232 235 -415 349 -76 46 -105 59 -158 66 -36 5
-361 59 -721 120 -980 165 -873 152 -1121 146 -293 -7 -449 -42 -655 -145
-159 -79 -264 -156 -474 -349 -69 -64 -92 -80 -86 -62 39 127 229 329 414 439
139 83 344 150 518 170 48 5 171 10 272 10 200 0 133 10 1136 -166 77 -13 259
-44 405 -69 146 -25 277 -48 293 -51 16 -3 27 -1 27 5 0 6 -48 60 -106 121
-98 101 -104 110 -79 110 27 0 27 1 11 25 -20 30 -20 35 -1 35 8 0 15 3 15 6
0 3 -42 67 -93 143 -235 343 -287 420 -287 424 0 2 62 10 138 16 75 7 140 16
144 19 4 4 -139 198 -318 432 -178 233 -324 427 -324 430 0 3 29 16 65 28 36
13 65 29 64 35 0 7 -70 64 -155 127 -84 63 -154 118 -154 121 0 4 7 9 15 13 8
3 15 11 15 18 0 7 -129 98 -285 202 -245 163 -284 192 -280 210 4 18 -52 59
-420 303 l-425 283 -74 -93z m494 -210 l409 -273 -115 -140 c-303 -366 -599
-772 -859 -1176 -65 -101 -149 -229 -186 -286 -207 -314 -339 -704 -365 -1077
-4 -53 -8 -94 -10 -92 -2 2 -30 220 -64 485 -51 412 -60 506 -60 645 0 663
188 1257 586 1857 75 114 239 330 250 330 2 0 188 -123 414 -273z m693 -509
c147 -98 267 -182 267 -186 -1 -4 -44 -36 -97 -72 -357 -241 -791 -598 -1094
-900 -461 -460 -722 -851 -843 -1260 -29 -100 -31 -87 -11 79 28 223 80 417
166 620 53 127 104 217 218 393 42 64 122 188 178 276 201 312 491 712 741
1022 151 188 182 221 196 213 6 -4 131 -87 279 -185z m405 -352 l144 -108
-149 -62 c-255 -108 -562 -271 -767 -408 -412 -276 -812 -655 -1101 -1043 -75
-100 -203 -292 -229 -343 -32 -62 -27 -26 10 64 89 224 241 470 440 714 148
180 489 524 694 700 289 246 784 616 805 601 5 -4 75 -56 153 -115z m-4553
-221 c202 -108 451 -266 776 -490 26 -18 43 -45 19 -30 -15 9 -223 52 -366 75
-164 26 -297 37 -499 39 -87 1 -161 4 -163 6 -4 4 43 411 54 467 l6 28 41 -24
c23 -13 83 -45 132 -71z m135 -12 c607 -218 1233 -515 1800 -853 118 -71 224
-135 234 -143 17 -12 27 -80 85 -545 37 -292 63 -528 60 -524 -4 4 -37 52 -75
107 -364 538 -849 1042 -1399 1453 -126 94 -446 311 -550 372 -22 13 -105 61
-185 108 -157 91 -156 92 30 25z m4752 -363 c172 -225 314 -414 316 -419 2 -5
-21 -12 -50 -15 -29 -3 -165 -17 -303 -31 -625 -64 -1078 -152 -1495 -291
-291 -97 -504 -205 -674 -342 l-69 -56 32 48 c105 152 366 452 532 611 321
307 684 562 1089 765 129 65 290 139 302 140 3 0 147 -184 320 -410z m114
-582 c38 -57 119 -177 181 -267 62 -91 111 -167 109 -168 -2 -2 -75 10 -162
26 -453 86 -693 112 -1104 118 -274 4 -360 2 -470 -11 -420 -51 -699 -162
-906 -358 -93 -88 -211 -254 -230 -322 -23 -88 -50 -165 -58 -173 -16 -15 5
102 34 189 74 220 188 365 401 508 304 203 746 352 1379 464 187 33 633 93
711 95 l45 1 70 -102z m-3618 -40 c312 -293 614 -649 858 -1012 80 -118 81
-121 60 -133 -34 -20 -45 -16 -109 43 -224 203 -571 339 -1027 403 -218 31
-343 38 -708 40 -364 2 -653 -14 -1012 -54 -118 -13 -215 -23 -216 -22 0 1
132 192 295 425 l295 422 722 0 722 0 120 -112z m2920 -278 c255 -18 573 -62
865 -119 92 -18 125 -35 127 -63 0 -10 18 -13 -155 21 -851 166 -1565 171
-2032 15 -194 -65 -336 -147 -461 -268 -84 -80 -131 -141 -178 -230 -19 -33
-34 -56 -34 -51 0 20 90 176 134 233 85 111 217 217 362 290 139 70 385 138
606 166 128 17 566 20 766 6z m-4878 -35 c0 -3 -169 -259 -377 -570 -207 -311
-374 -567 -372 -569 17 -17 739 -30 1974 -35 l1400 -6 3 -27 3 -28 -1740 0
-1741 0 212 318 c116 174 301 453 411 620 109 166 206 302 213 302 8 0 14 -2
14 -5z m70 0 c0 -2 -83 -124 -185 -269 -102 -146 -185 -270 -185 -276 0 -7 10
-10 28 -6 51 10 186 25 377 42 152 13 267 15 575 11 452 -6 651 -24 1033 -93
202 -37 612 -133 603 -141 -2 -3 -64 7 -137 21 -185 34 -251 43 -422 57 -170
13 -612 7 -722 -11 -95 -15 -1527 -141 -1533 -135 -3 3 115 185 261 405 203
304 272 400 287 400 11 0 20 -2 20 -5z m5042 -54 c194 -24 460 -64 603 -92
l99 -19 108 -107 c60 -60 104 -109 99 -111 -5 -2 -372 60 -816 138 l-808 140
-196 0 c-117 0 -236 -6 -296 -15 -284 -41 -527 -154 -708 -330 -77 -74 -59
-43 24 42 188 192 495 319 889 368 177 22 780 13 1002 -14z m-247 -220 c336
-58 417 -79 162 -41 -490 72 -562 80 -754 80 -208 0 -343 -16 -480 -54 -195
-55 -326 -126 -497 -269 -130 -108 -229 -182 -206 -153 26 33 268 234 328 272
155 100 348 178 513 208 130 24 140 24 374 21 216 -4 225 -5 560 -64z m-265
-1 c74 -11 315 -45 535 -75 220 -31 456 -64 525 -75 l125 -19 -130 5 c-208 8
-685 67 -1005 124 -366 65 -629 48 -930 -60 -124 -44 -235 -95 -319 -144 -89
-52 -74 -30 22 32 162 105 365 187 527 212 41 7 82 13 90 15 8 1 107 3 220 4
158 1 236 -4 340 -19z m45 -58 c407 -74 804 -120 1095 -127 258 -7 383 -21
430 -49 l35 -21 -110 -9 c-132 -10 -621 7 -805 29 -224 26 -384 59 -515 105
-33 12 -109 36 -170 53 -106 29 -117 30 -320 31 -241 1 -297 -8 -511 -79 -167
-55 -304 -120 -474 -225 -167 -102 -159 -98 -136 -72 10 12 60 48 110 81 227
147 447 240 686 290 134 28 145 29 340 26 144 -2 206 -8 345 -33z m-122 -23
c56 -11 147 -36 202 -55 299 -104 632 -145 1183 -148 l342 -2 93 -66 c212
-151 367 -337 367 -443 l0 -22 -737 -7 c-406 -4 -805 -9 -888 -11 -290 -9
-682 -26 -825 -36 -80 -5 -206 -14 -280 -19 -144 -10 -327 -33 -391 -50 -22
-6 -43 -9 -48 -6 -5 3 -27 37 -51 75 -23 39 -48 75 -56 82 -8 6 -14 16 -14 21
0 6 128 8 348 5 312 -4 364 -7 517 -31 196 -30 178 -28 171 -17 -7 11 -148 36
-318 56 -159 19 -477 27 -623 16 -99 -7 -112 -6 -129 10 -11 10 -17 21 -14 24
16 17 297 36 475 33 128 -2 189 0 182 7 -25 25 -509 14 -644 -15 -36 -8 -43
-6 -68 18 l-28 26 35 13 c66 22 251 53 385 63 281 21 615 12 974 -26 137 -15
182 -15 166 0 -16 14 -472 50 -709 55 -266 6 -271 7 -156 15 137 10 550 2 646
-12 114 -18 220 -24 220 -14 0 5 -53 15 -117 22 -65 6 -152 16 -193 20 -105
12 -491 12 -635 0 -150 -13 -301 -34 -428 -61 -152 -32 -134 -18 30 24 355 89
624 137 963 172 85 9 157 18 160 22 9 10 -221 -6 -378 -27 -286 -38 -596 -103
-876 -182 -122 -34 -143 -37 -169 -27 l-30 12 68 34 c188 95 530 183 813 209
40 4 75 11 79 16 11 20 -268 -16 -457 -58 -148 -33 -324 -91 -438 -144 -128
-60 -139 -44 -12 18 131 64 308 123 487 161 115 24 130 29 88 30 -110 2 -443
-99 -610 -184 -109 -56 -135 -66 -100 -39 68 53 380 180 530 217 14 3 11 5
-10 6 -39 1 -186 -42 -302 -90 -51 -20 -93 -36 -93 -34 0 9 279 171 356 206
145 67 337 125 504 152 14 2 96 5 183 6 125 1 181 -3 260 -20z m-3057 -19
c511 -40 901 -153 1173 -340 47 -32 106 -80 131 -106 l45 -48 -60 51 c-186
156 -415 263 -729 338 -448 108 -1137 124 -1906 45 -243 -25 -350 -41 -350
-52 0 -10 -16 -11 173 12 485 60 1126 86 1472 61 543 -40 934 -147 1201 -328
84 -57 138 -102 132 -109 -3 -3 -18 6 -34 19 -150 126 -430 247 -714 311 -316
70 -582 90 -1099 83 -413 -5 -628 -19 -970 -63 -107 -13 -196 -23 -198 -21 -1
2 12 20 29 40 l33 35 170 21 c142 17 304 31 625 54 114 8 761 6 876 -3z m-101
-80 c513 -37 837 -112 1125 -261 108 -56 194 -111 145 -94 -98 36 -367 115
-530 155 -478 118 -847 167 -1350 179 -159 4 -270 9 -245 11 25 1 92 6 150 10
164 11 551 11 705 0z m385 -219 c43 -4 -33 -9 -220 -13 -212 -5 -360 -14 -575
-37 -159 -17 -360 -38 -445 -47 -85 -9 -359 -37 -608 -63 -283 -29 -452 -43
-452 -36 0 5 6 18 13 27 11 13 56 20 248 37 430 38 1363 123 1429 131 81 9
522 10 610 1z m224 -41 c208 -16 341 -45 616 -136 156 -51 170 -58 153 -75 -9
-9 -44 -3 -150 24 -189 49 -315 73 -463 87 -144 14 -464 10 -479 -5 -7 -7 46
-9 165 -7 213 5 393 -10 579 -49 134 -27 301 -72 311 -82 3 -3 -3 -22 -14 -44
-11 -21 -28 -64 -38 -96 l-18 -57 -1330 1 c-1226 2 -1549 6 -1899 27 l-127 7
70 105 c53 79 77 107 97 112 16 4 100 14 188 22 238 24 712 73 1180 122 521
55 843 67 1159 44z m1171 -137 c98 -28 219 -140 326 -303 l50 -75 -108 -17
c-168 -28 -450 -34 -612 -14 -73 9 -138 19 -142 22 -5 3 -9 14 -9 26 0 16 5
19 24 14 51 -13 167 -25 291 -32 180 -9 515 23 515 49 0 5 -15 7 -32 3 -124
-22 -355 -37 -472 -31 -131 6 -265 20 -299 31 -25 8 -17 55 24 144 42 91 109
157 188 187 38 14 200 12 256 -4z m3699 -285 c13 -18 13 -25 3 -35 -9 -9 -380
-18 -1562 -38 -852 -14 -1577 -25 -1610 -24 l-60 1 65 13 c91 18 348 42 585
55 110 5 241 12 290 15 367 19 875 29 1742 33 l532 2 15 -22z"/>
<path d="M2735 1784 c-199 -13 -510 -58 -522 -77 -4 -7 7 -8 33 -4 310 52 304
52 689 52 375 0 441 -5 663 -51 19 -4 32 -2 32 4 0 11 -119 34 -290 57 -112
15 -485 26 -605 19z"/>
<path d="M2855 1712 c-127 -7 -351 -34 -360 -44 -7 -7 7 -9 50 -4 217 23 296
27 510 27 217 0 353 -7 518 -27 35 -4 57 -3 57 3 0 11 -130 28 -335 43 -124
10 -289 10 -440 2z"/>
</g>
</svg>
