<?xml version="1.0" standalone="no"?>
<!DOCTYPE svg PUBLIC "-//W3C//DTD SVG 20010904//EN"
 "http://www.w3.org/TR/2001/REC-SVG-20010904/DTD/svg10.dtd">
<svg version="1.0" xmlns="http://www.w3.org/2000/svg"
 width="794.000000pt" height="581.000000pt" viewBox="0 0 794.000000 581.000000"
 preserveAspectRatio="xMidYMid meet">
<metadata>
Created by potrace 1.13, written by Peter Selinger 2001-2015
</metadata>
<g transform="translate(0.000000,581.000000) scale(0.100000,-0.100000)"
fill="#000000" stroke="none">
<path d="M3840 4856 c-168 -40 -546 -130 -840 -199 -294 -70 -782 -185 -1085
-256 -302 -71 -811 -191 -1130 -266 -716 -169 -660 -154 -648 -166 7 -7 1375
-599 2000 -866 10 -4 13 -126 15 -522 l3 -517 38 -77 c52 -105 135 -186 258
-254 212 -116 398 -176 746 -244 251 -48 376 -59 703 -59 462 0 744 18 1018
65 456 79 762 207 979 409 l73 68 2 645 3 646 300 83 c165 46 312 86 328 89
l27 7 0 -246 c0 -237 -1 -246 -21 -256 -73 -40 -79 -202 -9 -240 17 -9 20 -21
20 -75 0 -55 -4 -68 -26 -92 -102 -108 -178 -508 -199 -1058 -3 -82 -8 -167
-10 -187 l-5 -38 320 0 320 0 0 23 c0 12 -7 128 -15 257 -38 592 -96 885 -199
1008 -22 25 -26 40 -26 91 0 50 3 62 20 71 71 38 64 200 -10 240 -20 11 -20
17 -18 277 l3 267 25 7 c43 12 251 70 340 94 47 13 168 47 270 75 102 29 226
63 275 76 50 13 101 29 115 35 l25 11 -25 10 c-14 5 -137 45 -275 88 -137 43
-401 125 -585 183 -1422 447 -2772 867 -2782 866 -7 0 -150 -33 -318 -73z
m1009 -160 c853 -267 2101 -658 2446 -766 143 -45 307 -97 365 -115 l105 -33
-70 -20 c-39 -11 -203 -57 -365 -102 -162 -45 -349 -97 -416 -115 -66 -19
-129 -36 -140 -38 -10 -1 -23 -5 -29 -9 -5 -3 -23 -9 -40 -12 -56 -12 -70 -15
-230 -61 -88 -25 -241 -68 -340 -96 -99 -28 -218 -61 -265 -74 -47 -13 -283
-79 -525 -145 -242 -67 -487 -134 -545 -151 -986 -274 -1341 -371 -1370 -371
-25 -1 -371 144 -1215 506 -649 280 -1370 589 -1602 689 -233 100 -419 184
-415 187 6 6 268 68 937 225 120 28 792 187 1520 359 292 69 703 166 915 216
212 49 428 101 480 114 52 13 99 24 104 25 5 1 318 -95 695 -213z m1891 -1485
l0 -260 27 -21 c42 -33 63 -71 63 -114 0 -41 -30 -100 -55 -110 -11 -4 -15
-23 -15 -77 0 -67 2 -73 35 -112 78 -91 132 -324 170 -736 16 -175 36 -503 31
-508 -2 -2 -135 -4 -296 -4 l-293 -1 2 84 c5 225 39 607 71 790 36 205 86 348
137 388 20 16 23 27 23 93 0 62 -3 78 -18 89 -69 50 -70 141 -3 204 l31 29 0
252 0 251 28 10 c66 25 62 39 62 -247z m-790 -595 l0 -634 -71 -66 c-252 -233
-654 -375 -1234 -436 -253 -27 -922 -39 -1110 -21 -234 23 -580 96 -795 168
-58 19 -163 65 -235 101 -159 80 -245 158 -298 269 l-32 68 -3 513 -3 513 33
-14 c18 -8 296 -127 618 -266 322 -138 592 -251 599 -251 7 0 137 34 289 76
324 88 1078 296 1172 323 36 11 117 33 180 51 63 17 282 78 485 135 204 56
378 103 388 104 16 1 17 -35 17 -633z"/>
</g>
</svg>
